<?xml version="1.0" encoding="UTF-8"?>
<svg width="96px" height="96px" viewBox="0 0 96 96" version="1.1" xmlns="http://www.w3.org/2000/svg" xmlns:xlink="http://www.w3.org/1999/xlink">
    <defs>
        <path d="M35.5028619,72.7795126 C40.7440136,63.3333408 48.8133268,57.1591211 59.6831505,54.2736539 C58.2367259,53.0614411 56.7482593,51.7399338 55.2278001,50.3246219 C54.3013183,49.4622109 53.3783881,48.5796935 52.4633558,47.6836801 L49.3431073,49.506907 C49.1046839,49.6462228 48.7984658,49.5658802 48.65915,49.3274568 C48.5198342,49.0890334 48.6001767,48.7828153 48.8386001,48.6434995 L51.7255265,46.9566077 C50.6325775,45.872849 49.5526979,44.7722083 48.4934054,43.6661215 L45.3431073,45.506907 C45.1046839,45.6462228 44.7984658,45.5658802 44.65915,45.3274568 C44.5198342,45.0890334 44.6001767,44.7828153 44.8386001,44.6434995 L47.7846622,42.9220534 C47.5184713,42.6410879 47.2537127,42.359937 46.9905088,42.078787 C46.0696133,41.0951017 45.2338,40.1815638 44.4984446,39.3614998 C44.2757956,39.1132029 44.0762323,38.8889153 43.9009973,38.6905213 C40.5158382,41.09589 29.5335333,41.8340588 10.697765,41.0169327 C10.6728196,41.1179825 10.6443807,41.2340624 10.6126467,41.3647254 C10.465885,41.9690082 10.3022709,42.6661637 10.1260159,43.4466961 C9.62219943,45.6778114 9.11830282,48.128668 8.64801043,50.7232138 C7.72758923,55.8010656 7.05099363,60.7904251 6.72069178,65.4581237 C6.54601913,67.9265303 6.47251111,70.2572135 6.50815505,72.4189189 L29.6200187,72.4189189 L29.6200187,72.3868296 L30.2198563,71.8968986 C30.3174333,71.9167827 30.5104117,71.9545405 30.7940608,72.0076213 C31.2683641,72.0963802 31.8238867,72.1953631 32.4558967,72.3020196 C33.4046975,72.4621371 34.4221787,72.6222848 35.5028619,72.7795126 Z M36.5648742,72.9301938 C37.2187528,73.0206502 37.8935445,73.1097899 38.5881613,73.1970269 C45.0694877,74.0110175 51.9427517,74.4994297 58.904443,74.4994297 C59.0646307,74.4994297 59.2252395,74.4991266 59.3862653,74.4985217 C66.2184155,74.4728598 73.5426668,73.9158609 80.877558,73.0033415 C83.5089377,72.6759768 85.9548044,72.3252464 88.1513956,71.9745783 C88.9198263,71.8519046 89.6020701,71.7380281 90.1901619,71.6358783 C90.1978336,71.6345457 89.6766047,70.6690897 88.6264751,68.7395102 C87.6776228,67.0218964 86.0085094,65.8500621 84.1062475,65.5664425 C78.2814828,64.6965991 73.6399089,63.2782213 68.3860421,60.4392867 C66.3157904,59.3211106 64.0264655,57.7547559 61.5525662,55.7974361 C61.1327828,55.4653084 60.7088712,55.1228618 60.2810979,54.7705068 L60.3723151,55.1275027 C49.6727927,57.8613747 41.7462322,63.789983 36.5648742,72.9301938 Z M5.52270846,73.0683393 C5.50795241,73.0211558 5.5,72.970966 5.5,72.9189189 C5.5,72.8754816 5.50553901,72.8333379 5.51594925,72.7931558 C5.46455159,70.491456 5.53724584,68.0151736 5.72318614,65.3875369 C6.05631184,60.6799327 6.73761636,55.6558487 7.66404434,50.5448582 C8.13701394,47.9355425 8.64375516,45.4708503 9.15057648,43.2264284 C9.32804476,42.4405229 9.49288796,41.7381302 9.64089566,41.128717 C9.72987734,40.76234 9.79359706,40.5079042 9.82784455,40.3748799 L10.334185,40.0000313 C29.8678169,40.865445 41.0616547,40.033915 43.6181094,37.6353648 L44.3379844,37.6724398 C44.377647,37.718181 44.4558733,37.8077063 44.5707344,37.938094 C44.7626714,38.1559766 44.987389,38.4088832 45.2429574,38.6938915 C45.9736879,39.5087979 46.8046962,40.4170841 47.7205307,41.3953632 C50.3371209,44.1903614 53.1080339,46.9852591 55.9091443,49.5926588 C58.0749222,51.6086623 60.1733077,53.4310444 62.1730384,55.0132076 C64.6048619,56.9372376 66.848231,58.4721494 68.8613502,59.5594673 C74.0047653,62.3387191 78.5368904,63.7236515 84.2538293,64.5773926 C86.4659593,64.9072123 88.4032028,66.2672926 89.501722,68.2558337 L91.4375878,71.7577006 L91.0914212,72.4911744 C90.9634876,72.5149672 90.7174629,72.5592609 90.3612966,72.6211259 C89.7687915,72.7240423 89.0820573,72.8386683 88.3090413,72.9620741 C86.1014992,73.3144903 83.6443106,73.6668443 81.0010143,73.9956915 C73.629416,74.9127775 66.2669236,75.4726846 59.3900214,75.4985147 C59.2277467,75.4991242 59.0658859,75.4994297 58.904443,75.4994297 C51.8979255,75.4994297 44.9838428,75.0081169 38.46355,74.1892325 C36.1810662,73.9025751 34.1104687,73.595381 32.2894919,73.2880772 C31.7233194,73.1925312 31.2174661,73.1029985 30.7752307,73.0212634 C30.7531826,73.1272607 30.6975742,73.2209546 30.6200187,73.2907319 L30.6200187,76 L30.1200187,76.5 L6.22967274,76.5 L5.73273585,76.0552605 L5.59629794,74.8219897 C5.5631703,74.2496516 5.5387046,73.6649641 5.52270846,73.0683393 Z M29.6200187,73.4189189 L6.53286147,73.4189189 C6.54770595,73.8664942 6.56752644,74.3062333 6.59239938,74.737837 L6.67715361,75.5 L29.6200187,75.5 L29.6200187,73.4189189 Z" id="path-1"></path>
    </defs>
    <g id="ðŸ‘-Icons-/-Set-2-/-05-Chukka" stroke="none" stroke-width="1" fill="none" fill-rule="evenodd">
        <mask id="mask-2" fill="white">
            <use xlink:href="#path-1"></use>
        </mask>
        <use id="MASK" fill="#000000" fill-rule="nonzero" xlink:href="#path-1"></use>
        <g id="ðŸŒˆ-Color-/-Fill-/-BLACK-#000" mask="url(#mask-2)"></g>
    </g>
</svg>