<svg width="131" height="185" xmlns="http://www.w3.org/2000/svg"><g id="round-outlines" fill="none" fill-rule="evenodd" stroke-linecap="round" stroke-linejoin="bevel"><g transform="translate(-353 -1452)" stroke="#FF553E" stroke-width="4"><g transform="translate(0 1096)"><g><g transform="translate(239 261)"><g transform="translate(116 97)"><path d="M47.732 181a99.36 99.36 0 0 1-6.502-4.275C-2.923 145.162-13.235 83.634 18.196 39.297 33.094 18.282 54.695 4.902 78 0" /><path d="M82.875 168a73.974 73.974 0 0 1-26.813-11.865C22.798 132.638 15.028 86.831 38.709 53.823 56.469 29.067 86.874 18.54 115 24.739" /><path d="M69.74 137a49.517 49.517 0 0 1-7.523-6.544c-15.656-16.686-17.899-42.544-4.063-61.851 6.928-9.67 16.74-16.09 27.445-18.933 13.726-3.644 28.923-1.404 41.401 7.421" /></g></g></g></g></g></g></svg>