<svg width="120px" height="152px" viewBox="0 0 120 152" version="1.1" xmlns="http://www.w3.org/2000/svg" xmlns:xlink="http://www.w3.org/1999/xlink">
    <defs>
        <path d="M131.542462,53.0325629 L133.542162,54.9926756 C136.730558,57.9077159 137.733084,61.9604062 136.471199,66.5679306 L134.619047,73.5575177 C133.791905,76.6781301 132.057255,79.4756274 129.639317,81.5871235 C126.567806,84.2697815 124.801433,88.1742116 124.801433,92.2840123 L124.801433,117.175259 C125.069946,117.153741 125.338468,117.129798 125.606965,117.103422 L135.662812,116.116775 L135.881009,116.938298 L136.813793,120.450291 C138.929074,128.40743 140,136.602025 140,144.830577 L140,148.533885 C140,152.642855 136.682786,155.927374 132.502498,156 L20.8768686,156 L20.6794209,155.010484 C18.2613503,147.091805 22.4862479,138.673792 30.3199088,135.810358 L37.1031851,133.332209 C55.0508481,126.772306 71.3973866,116.532164 85.0737025,103.281797 L85.6517923,102.721712 L96.3832672,109.843128 C97.557947,110.62273 98.76503,111.34373 100,112.005005 L100,86.7147314 C100,85.3583105 99.4671208,84.0560107 98.5141923,83.0841937 L95.4615758,79.9703039 C93.2422855,77.7065058 92,74.6686448 92,71.5054463 L92,48 L92.1644532,48 L90.5012077,44.1869691 C89.2143855,41.2690477 90.4891939,37.8352642 93.3593524,36.5158069 C95.8231555,35.3838758 98.6557596,36.1784473 100.217629,38.2343472 C100.672623,36.6353115 101.820759,35.2395686 103.481699,34.5076505 C105.193443,33.7538236 107.079351,33.8677725 108.625104,34.6624457 L105.065886,10.6797857 C104.591039,7.51654293 106.729013,4.55819024 109.858149,4.06878336 C112.988684,3.57838338 115.912892,5.75584618 116.393957,8.92223359 L120.82926,38.1676006 C120.933305,38.8543432 121.88388,38.8572095 121.991781,38.1712351 L126.605606,8.92222296 C127.085489,5.75821205 130.008053,3.5837802 133.140454,4.06873983 C136.272261,4.55843571 138.413236,7.5188328 137.933137,10.6788349 C137.920763,10.7618103 137.920763,10.7618103 137.861982,11.1558498 C137.781536,11.6950528 137.781536,11.6950528 137.660834,12.5038454 C137.444173,13.9555163 137.202633,15.5730882 136.942366,17.3150873 C136.198742,22.2922409 135.454016,27.2694005 134.75739,31.914789 L134.73066,32.0930296 C132.700457,45.6304209 131.793122,51.632262 131.542462,53.0325629 Z M129.801878,51.3264366 C129.993897,50.0659778 130.298401,48.0838605 130.584505,46.1968221 C131.131888,42.5864761 131.870437,37.6798579 132.752778,31.7964067 L132.779506,31.6181841 C133.476072,26.9731939 134.220747,21.9963763 134.964321,17.0195527 C135.224573,15.2776597 135.466098,13.6601891 135.682744,12.2086166 C135.803437,11.399888 135.803437,11.399888 135.883874,10.8607434 L135.95542,10.3811302 C136.271366,8.3015659 134.869695,6.36342899 132.832972,6.04496157 C130.80164,5.73047077 128.897723,7.14701412 128.582085,9.22799304 L123.967421,38.4824362 C123.504246,41.4270463 119.298339,41.414364 118.851849,38.4673404 L114.416607,9.22238231 C114.101001,7.14505167 112.196471,5.72687465 110.167436,6.0447239 C108.131329,6.3631776 106.73115,8.30063064 107.043972,10.384535 L110.973223,36.8605315 C111.079433,37.0385329 111.177113,37.2238794 111.265503,37.4162941 L114.842274,45.4099719 L120.622023,45.0132998 C122.252074,44.9018567 123.852404,45.494509 125.023603,46.6427556 L129.801878,51.3264366 Z M112.716478,45.5558683 L109.559456,38.5001803 L109.202516,38.5531531 L109.059116,37.5868963 C108.003388,36.1448464 106.013355,35.5780971 104.287982,36.3379262 C102.333031,37.1994041 101.466569,39.4363924 102.34336,41.3427479 L105.421247,48.1419448 C106.5035,46.8142016 108.116132,45.9089958 109.948591,45.7458321 L112.716478,45.5558683 Z M106.402019,50.3085145 L106.528357,50.587603 L106.233677,50.7210003 C106.071831,51.1854865 105.989172,51.682461 106.001158,52.1956983 C106.060828,54.7297886 108.206585,56.663782 110.673707,56.4482434 L118.592187,55.7449025 C119.105507,55.699728 119.612876,55.8819456 119.982049,56.2442966 L123.79709,60.0001733 L122.393971,61.4253949 L118.926943,58.0121323 C118.608582,59.9586979 117.269884,61.6629707 115.302824,62.4906251 C114.497194,62.8295715 113.637279,63 112.771601,63 C111.189858,63 109.687294,62.4339252 108.550728,61.4465879 C108.011692,62.7491973 107.00686,63.8562816 105.640325,64.48432 C104.89412,64.8271952 104.096853,65 103.293148,65 C101.059455,65 99.0103486,63.6735643 98.0808466,61.5634769 L94,52.208036 L94,71.5054463 C94,74.1447657 95.0367599,76.6800384 96.8897652,78.5702056 L99.9423016,81.6840138 C101.261455,83.0293148 102,84.8342398 102,86.7147314 L102,113 L101.973888,113 C108.448869,116.065784 115.594182,117.546517 122.801433,117.290817 L122.801433,92.2840123 C122.801433,87.5980065 124.816437,83.1439969 128.323732,80.0807253 C130.440801,78.2319666 131.960674,75.7808427 132.685788,73.0451606 L134.540077,66.0476433 C135.613248,62.1290574 134.803532,58.8557971 132.167435,56.4448875 L123.623561,48.0710002 C122.859445,47.3218589 121.818053,46.9361985 120.758702,47.0086241 L110.105812,47.7395391 C108.454015,47.8867178 107.058387,48.9120741 106.402019,50.3085145 Z M104.241578,50.3856924 L100.578365,42.2934435 L100.214302,42.4771632 L99.0868945,40.2399765 C98.2446767,38.3261525 96.0554448,37.4781296 94.1945188,38.3330843 C92.3226908,39.1935933 91.4827262,41.4560952 92.332777,43.38364 L99.9125845,60.7605301 C100.519956,62.139331 101.849536,63 103.293148,63 C103.809887,63 104.322201,62.8889576 104.805206,62.6670208 C106.677385,61.8065961 107.517139,59.5448308 106.669008,57.6198907 L106.956057,57.4934163 C105.230346,56.3991077 104.054356,54.4784447 104.001708,52.2425864 C103.986699,51.5999317 104.071252,50.9762388 104.241578,50.3856924 Z M108.93499,58.3144987 C108.962293,58.4961483 108.980902,58.6780621 108.991029,58.8596666 C109.710195,60.173299 111.173487,61 112.771601,61 C113.373218,61 113.969335,60.8818542 114.5272,60.647148 C115.783191,60.118681 116.643854,59.0846504 116.911536,57.9020559 L110.849215,58.4405273 C110.189969,58.4981221 109.546731,58.4515116 108.93499,58.3144987 Z M136.072483,126.008858 C135.722531,124.317827 135.32524,122.63552 134.880867,120.963902 L134.166222,118.27322 L125.802378,119.093853 C115.048051,120.150307 104.257177,117.469199 95.2773656,111.509556 L85.8852661,105.276951 C72.824491,117.783263 57.4033945,127.604486 40.5116308,134.183332 C41.0616125,134.566943 41.6379528,135.044288 42.2123786,135.627376 C44.5832264,138.033977 46,141.453347 46,146 L44,146 C44,141.981386 42.7917736,139.065342 40.7876214,137.030967 C40.0935802,136.326459 39.3512688,135.780565 38.6125426,135.375046 C38.4077557,135.26263 38.2274474,135.17333 38.0774845,135.105146 C37.9815764,135.140441 37.885623,135.175632 37.7896245,135.21072 L31.0063712,137.68886 C27.0013432,139.152815 24.0786439,142.276594 22.7676308,146 L138,146 L138,144.830577 C138,139.182204 137.484515,133.550153 136.462484,128.003018 C122.485078,128.160861 115,134.505258 115,146 L113,146 C113,133.422997 121.299181,126.293388 136.072483,126.008858 Z M138,148 L22.2310465,148 C21.8668322,149.940915 21.9245808,151.984459 22.4695158,154.000001 L132.485091,154.000152 C135.569102,153.94646 138,151.539522 138,148.533885 L138,148 Z M68,126.5 C68,127.32875 67.32875,128 66.5,128 C65.67125,128 65,127.32875 65,126.5 C65,125.67125 65.67125,125 66.5,125 C67.32875,125 68,125.67125 68,126.5 Z M78,120.5 C78,121.32875 77.32875,122 76.5,122 C75.67125,122 75,121.32875 75,120.5 C75,119.67125 75.67125,119 76.5,119 C77.32875,119 78,119.67125 78,120.5 Z M87,114.5 C87,115.32875 86.32875,116 85.5,116 C84.67125,116 84,115.32875 84,114.5 C84,113.67125 84.67125,113 85.5,113 C86.32875,113 87,113.67125 87,114.5 Z" id="path-1"></path>
    </defs>
    <g id="0.-Global-Navigation" stroke="none" stroke-width="1" fill="none" fill-rule="evenodd">
        <g id="Blocks-/-Global-/-Footer:-EPI" transform="translate(-174.000000, -81.000000)">
            <g id="ðŸ‘-Icons-/-Illustration-/-Hand-in-Shoe" transform="translate(154.000000, 77.000000)">
                <mask id="mask-2" fill="white">
                    <use xlink:href="#path-1"></use>
                </mask>
                <use id="MASK" fill="#8C8C8C" fill-rule="nonzero" xlink:href="#path-1"></use>
                <g id="ðŸŒˆ-Color-/-Mosey-/-3" mask="url(#mask-2)"></g>
            </g>
        </g>
    </g>
</svg>