<?xml version="1.0" encoding="UTF-8"?>
<svg width="96px" height="96px" viewBox="0 0 96 96" version="1.1" xmlns="http://www.w3.org/2000/svg" xmlns:xlink="http://www.w3.org/1999/xlink">
    <g id="ðŸ‘-Icons-/-Set-2-/-00-Suit" stroke="none" stroke-width="1" fill="none" fill-rule="evenodd" stroke-linecap="round" stroke-linejoin="round">
        <g id="shirt" transform="translate(8.000000, 7.000000)" stroke="#000000">
            <path d="M21.8712369,6.70403616 L10.4917098,6.70403616 C8.43648404,6.70403616 6.71571274,8.26153764 6.51150393,10.3065931 L0.37890625,71.7216797 L11.3789063,73.7216797 L15.8239007,30.9095182 L15.8239007,81.3376056 L64.2348646,81.3376056 L64.2348646,30.9095182 L74.3164479,73.7216797 L85.3164479,71.7216797 L73.7891296,9.9700266 C73.4356919,8.07666697 71.7831182,6.70403616 69.8570525,6.70403616 L58.1794599,6.70403616" id="Shape"></path>
            <path d="M30.9356185,45.2460938 L28.9226074,26.6505516 L21.8712369,6.70403616 L27.9226074,0.652665668 L40,54.6484375 L30.9356185,45.2460938 Z M48.9356185,45.2460938 L50.9486295,26.6505516 L58,6.70403616 L51.9486295,0.652665668 L39.8712369,54.6484375 L48.9356185,45.2460938 Z M40.0253484,81.3376056 L40,54.4873047 L40.0253484,81.3376056 Z M27.7353516,0.809038632 L51.2662589,0.809038632 L27.7353516,0.809038632 Z" id="Shape"></path>
        </g>
    </g>
</svg>